<mxfile host="Electron" modified="2024-06-18T08:22:55.343Z" agent="Mozilla/5.0 (Windows NT 10.0; Win64; x64) AppleWebKit/537.36 (KHTML, like Gecko) draw.io/24.2.5 Chrome/120.0.6099.109 Electron/28.1.0 Safari/537.36" etag="L0kkvdDvS24vUD3rIaTk" version="24.2.5" type="device">
  <diagram id="hdGyb0UpPJ1mQXa12XUr" name="Home">
    <mxGraphModel dx="989" dy="582" grid="1" gridSize="10" guides="1" tooltips="1" connect="1" arrows="1" fold="1" page="1" pageScale="1" pageWidth="1100" pageHeight="850" background="none" math="0" shadow="0">
      <root>
        <mxCell id="0" />
        <mxCell id="1" parent="0" />
        <mxCell id="lbgsp23nfU9rArM0NHFG-11" value="" style="rounded=1;whiteSpace=wrap;html=1;fillColor=none;strokeWidth=2;" parent="1" vertex="1">
          <mxGeometry x="160" y="65" width="310" height="90" as="geometry" />
        </mxCell>
        <mxCell id="lbgsp23nfU9rArM0NHFG-30" style="edgeStyle=orthogonalEdgeStyle;rounded=0;orthogonalLoop=1;jettySize=auto;html=1;entryX=0;entryY=0.5;entryDx=0;entryDy=0;fontFamily=Tahoma;fontSize=19;strokeWidth=1;" parent="1" source="lbgsp23nfU9rArM0NHFG-1" target="lbgsp23nfU9rArM0NHFG-3" edge="1">
          <mxGeometry relative="1" as="geometry" />
        </mxCell>
        <mxCell id="lbgsp23nfU9rArM0NHFG-1" value="Ingestion" style="rounded=1;whiteSpace=wrap;html=1;" parent="1" vertex="1">
          <mxGeometry x="170" y="75" width="70" height="30" as="geometry" />
        </mxCell>
        <mxCell id="lbgsp23nfU9rArM0NHFG-8" value="" style="edgeStyle=orthogonalEdgeStyle;rounded=0;orthogonalLoop=1;jettySize=auto;html=1;" parent="1" source="lbgsp23nfU9rArM0NHFG-3" target="lbgsp23nfU9rArM0NHFG-5" edge="1">
          <mxGeometry relative="1" as="geometry" />
        </mxCell>
        <mxCell id="lbgsp23nfU9rArM0NHFG-3" value="Transformation" style="rounded=1;whiteSpace=wrap;html=1;" parent="1" vertex="1">
          <mxGeometry x="270" y="75" width="90" height="30" as="geometry" />
        </mxCell>
        <mxCell id="lbgsp23nfU9rArM0NHFG-5" value="Serving" style="rounded=1;whiteSpace=wrap;html=1;" parent="1" vertex="1">
          <mxGeometry x="390" y="75" width="70" height="30" as="geometry" />
        </mxCell>
        <mxCell id="lbgsp23nfU9rArM0NHFG-9" value="Storage" style="rounded=1;whiteSpace=wrap;html=1;" parent="1" vertex="1">
          <mxGeometry x="170" y="115" width="290" height="30" as="geometry" />
        </mxCell>
        <mxCell id="lbgsp23nfU9rArM0NHFG-13" style="edgeStyle=orthogonalEdgeStyle;rounded=0;orthogonalLoop=1;jettySize=auto;html=1;entryX=0;entryY=0.5;entryDx=0;entryDy=0;dashed=1;" parent="1" source="lbgsp23nfU9rArM0NHFG-10" target="lbgsp23nfU9rArM0NHFG-11" edge="1">
          <mxGeometry relative="1" as="geometry" />
        </mxCell>
        <mxCell id="lbgsp23nfU9rArM0NHFG-10" value="Generation" style="rounded=1;whiteSpace=wrap;html=1;" parent="1" vertex="1">
          <mxGeometry x="50" y="95" width="70" height="30" as="geometry" />
        </mxCell>
        <mxCell id="lbgsp23nfU9rArM0NHFG-17" style="edgeStyle=orthogonalEdgeStyle;rounded=0;orthogonalLoop=1;jettySize=auto;html=1;dashed=1;" parent="1" source="lbgsp23nfU9rArM0NHFG-11" target="lbgsp23nfU9rArM0NHFG-14" edge="1">
          <mxGeometry relative="1" as="geometry" />
        </mxCell>
        <mxCell id="lbgsp23nfU9rArM0NHFG-18" style="edgeStyle=orthogonalEdgeStyle;rounded=0;orthogonalLoop=1;jettySize=auto;html=1;curved=1;dashed=1;" parent="1" source="lbgsp23nfU9rArM0NHFG-11" target="lbgsp23nfU9rArM0NHFG-15" edge="1">
          <mxGeometry relative="1" as="geometry" />
        </mxCell>
        <mxCell id="lbgsp23nfU9rArM0NHFG-14" value="Machine Learning" style="rounded=1;whiteSpace=wrap;html=1;" parent="1" vertex="1">
          <mxGeometry x="530" y="95" width="70" height="30" as="geometry" />
        </mxCell>
        <mxCell id="lbgsp23nfU9rArM0NHFG-15" value="Analytics" style="rounded=1;whiteSpace=wrap;html=1;" parent="1" vertex="1">
          <mxGeometry x="530" y="60" width="70" height="30" as="geometry" />
        </mxCell>
        <mxCell id="lbgsp23nfU9rArM0NHFG-16" value="Reverse ETL" style="rounded=1;whiteSpace=wrap;html=1;" parent="1" vertex="1">
          <mxGeometry x="530" y="130" width="70" height="30" as="geometry" />
        </mxCell>
        <mxCell id="lbgsp23nfU9rArM0NHFG-19" style="edgeStyle=orthogonalEdgeStyle;rounded=0;orthogonalLoop=1;jettySize=auto;html=1;curved=1;exitX=1;exitY=0.5;exitDx=0;exitDy=0;entryX=0;entryY=0.5;entryDx=0;entryDy=0;dashed=1;" parent="1" source="lbgsp23nfU9rArM0NHFG-11" target="lbgsp23nfU9rArM0NHFG-16" edge="1">
          <mxGeometry relative="1" as="geometry">
            <mxPoint x="479.9999999999998" y="124.99999999999989" as="sourcePoint" />
            <mxPoint x="540" y="89.99999999999989" as="targetPoint" />
          </mxGeometry>
        </mxCell>
        <mxCell id="lbgsp23nfU9rArM0NHFG-21" value="Security" style="rounded=1;whiteSpace=wrap;html=1;" parent="1" vertex="1">
          <mxGeometry x="50" y="215" width="70" height="40" as="geometry" />
        </mxCell>
        <mxCell id="lbgsp23nfU9rArM0NHFG-22" value="Data Management" style="rounded=1;whiteSpace=wrap;html=1;" parent="1" vertex="1">
          <mxGeometry x="130" y="215" width="90" height="40" as="geometry" />
        </mxCell>
        <mxCell id="lbgsp23nfU9rArM0NHFG-23" value="DataOps" style="rounded=1;whiteSpace=wrap;html=1;" parent="1" vertex="1">
          <mxGeometry x="230" y="215" width="80" height="40" as="geometry" />
        </mxCell>
        <mxCell id="lbgsp23nfU9rArM0NHFG-24" value="Data Architecture" style="rounded=1;whiteSpace=wrap;html=1;" parent="1" vertex="1">
          <mxGeometry x="320" y="215" width="90" height="40" as="geometry" />
        </mxCell>
        <mxCell id="lbgsp23nfU9rArM0NHFG-25" value="Orchestration" style="rounded=1;whiteSpace=wrap;html=1;" parent="1" vertex="1">
          <mxGeometry x="420" y="215" width="90" height="40" as="geometry" />
        </mxCell>
        <mxCell id="lbgsp23nfU9rArM0NHFG-26" value="Software Engineering" style="rounded=1;whiteSpace=wrap;html=1;" parent="1" vertex="1">
          <mxGeometry x="520" y="215" width="80" height="40" as="geometry" />
        </mxCell>
        <mxCell id="lbgsp23nfU9rArM0NHFG-27" value="" style="endArrow=none;html=1;strokeWidth=2;" parent="1" edge="1">
          <mxGeometry width="50" height="50" relative="1" as="geometry">
            <mxPoint x="50" y="200" as="sourcePoint" />
            <mxPoint x="600" y="200" as="targetPoint" />
          </mxGeometry>
        </mxCell>
        <mxCell id="lbgsp23nfU9rArM0NHFG-28" value="&lt;b style=&quot;font-size: 19px;&quot;&gt;&lt;font face=&quot;Courier New&quot; style=&quot;font-size: 19px;&quot;&gt;Undercurrents&lt;/font&gt;&lt;/b&gt;" style="text;html=1;strokeColor=none;fillColor=none;align=center;verticalAlign=middle;whiteSpace=wrap;rounded=0;fontSize=19;" parent="1" vertex="1">
          <mxGeometry x="185" y="170" width="260" height="30" as="geometry" />
        </mxCell>
        <mxCell id="lbgsp23nfU9rArM0NHFG-29" value="&lt;b style=&quot;font-size: 19px&quot;&gt;&lt;font face=&quot;Courier New&quot; style=&quot;font-size: 19px&quot;&gt;Data Engineering Lifecycle&lt;/font&gt;&lt;/b&gt;" style="text;html=1;strokeColor=none;fillColor=none;align=center;verticalAlign=middle;whiteSpace=wrap;rounded=0;fontSize=19;" parent="1" vertex="1">
          <mxGeometry x="137.5" y="30" width="355" height="30" as="geometry" />
        </mxCell>
        <mxCell id="5ja2YWkMJNkDNr8AE4VQ-2" value="Data Infrastructure" style="shape=step;perimeter=stepPerimeter;whiteSpace=wrap;html=1;fixedSize=1;size=10;" vertex="1" parent="1">
          <mxGeometry x="140" y="360" width="130" height="30" as="geometry" />
        </mxCell>
        <mxCell id="5ja2YWkMJNkDNr8AE4VQ-5" value="Focus Area" style="rounded=0;whiteSpace=wrap;html=1;fillColor=default;" vertex="1" parent="1">
          <mxGeometry x="40" y="360" width="90" height="30" as="geometry" />
        </mxCell>
        <mxCell id="5ja2YWkMJNkDNr8AE4VQ-6" value="Data Integration" style="shape=step;perimeter=stepPerimeter;whiteSpace=wrap;html=1;fixedSize=1;size=10;" vertex="1" parent="1">
          <mxGeometry x="270" y="360" width="130" height="30" as="geometry" />
        </mxCell>
        <mxCell id="5ja2YWkMJNkDNr8AE4VQ-7" value="Data Accessibility" style="shape=step;perimeter=stepPerimeter;whiteSpace=wrap;html=1;fixedSize=1;size=10;" vertex="1" parent="1">
          <mxGeometry x="400" y="360" width="130" height="30" as="geometry" />
        </mxCell>
        <mxCell id="5ja2YWkMJNkDNr8AE4VQ-8" value="Data Applications" style="rounded=0;whiteSpace=wrap;html=1;" vertex="1" parent="1">
          <mxGeometry x="40" y="400" width="90" height="30" as="geometry" />
        </mxCell>
        <mxCell id="5ja2YWkMJNkDNr8AE4VQ-9" value="Modeling, Business Logic" style="rounded=0;whiteSpace=wrap;html=1;" vertex="1" parent="1">
          <mxGeometry x="40" y="440" width="90" height="30" as="geometry" />
        </mxCell>
        <mxCell id="5ja2YWkMJNkDNr8AE4VQ-10" value="Data Transformation" style="rounded=0;whiteSpace=wrap;html=1;" vertex="1" parent="1">
          <mxGeometry x="40" y="480" width="90" height="30" as="geometry" />
        </mxCell>
        <mxCell id="5ja2YWkMJNkDNr8AE4VQ-11" value="Data Platform" style="rounded=0;whiteSpace=wrap;html=1;" vertex="1" parent="1">
          <mxGeometry x="40" y="520" width="90" height="30" as="geometry" />
        </mxCell>
        <mxCell id="5ja2YWkMJNkDNr8AE4VQ-12" value="0.3" style="rounded=0;whiteSpace=wrap;html=1;" vertex="1" parent="1">
          <mxGeometry x="140" y="400" width="30" height="30" as="geometry" />
        </mxCell>
        <mxCell id="5ja2YWkMJNkDNr8AE4VQ-13" value="0.3" style="rounded=0;whiteSpace=wrap;html=1;" vertex="1" parent="1">
          <mxGeometry x="140" y="440" width="30" height="30" as="geometry" />
        </mxCell>
        <mxCell id="5ja2YWkMJNkDNr8AE4VQ-14" value="0.4" style="rounded=0;whiteSpace=wrap;html=1;" vertex="1" parent="1">
          <mxGeometry x="140" y="480" width="50" height="30" as="geometry" />
        </mxCell>
        <mxCell id="5ja2YWkMJNkDNr8AE4VQ-15" value="1.0" style="rounded=0;whiteSpace=wrap;html=1;" vertex="1" parent="1">
          <mxGeometry x="140" y="520" width="120" height="30" as="geometry" />
        </mxCell>
        <mxCell id="5ja2YWkMJNkDNr8AE4VQ-16" value="0.7" style="rounded=0;whiteSpace=wrap;html=1;" vertex="1" parent="1">
          <mxGeometry x="270" y="400" width="90" height="30" as="geometry" />
        </mxCell>
        <mxCell id="5ja2YWkMJNkDNr8AE4VQ-17" value="0.5" style="rounded=0;whiteSpace=wrap;html=1;" vertex="1" parent="1">
          <mxGeometry x="270" y="440" width="70" height="30" as="geometry" />
        </mxCell>
        <mxCell id="5ja2YWkMJNkDNr8AE4VQ-18" value="1.0" style="rounded=0;whiteSpace=wrap;html=1;" vertex="1" parent="1">
          <mxGeometry x="270" y="480" width="120" height="30" as="geometry" />
        </mxCell>
        <mxCell id="5ja2YWkMJNkDNr8AE4VQ-19" value="0.4" style="rounded=0;whiteSpace=wrap;html=1;" vertex="1" parent="1">
          <mxGeometry x="270" y="520" width="50" height="30" as="geometry" />
        </mxCell>
        <mxCell id="5ja2YWkMJNkDNr8AE4VQ-20" value="0.8" style="rounded=0;whiteSpace=wrap;html=1;" vertex="1" parent="1">
          <mxGeometry x="400" y="400" width="100" height="30" as="geometry" />
        </mxCell>
        <mxCell id="5ja2YWkMJNkDNr8AE4VQ-21" value="1.0" style="rounded=0;whiteSpace=wrap;html=1;" vertex="1" parent="1">
          <mxGeometry x="400" y="440" width="130" height="30" as="geometry" />
        </mxCell>
        <mxCell id="5ja2YWkMJNkDNr8AE4VQ-22" value="0.5" style="rounded=0;whiteSpace=wrap;html=1;" vertex="1" parent="1">
          <mxGeometry x="400" y="480" width="70" height="30" as="geometry" />
        </mxCell>
        <mxCell id="5ja2YWkMJNkDNr8AE4VQ-23" value="0.3" style="rounded=0;whiteSpace=wrap;html=1;" vertex="1" parent="1">
          <mxGeometry x="400" y="520" width="30" height="30" as="geometry" />
        </mxCell>
        <mxCell id="5ja2YWkMJNkDNr8AE4VQ-26" value="Maturity" style="shape=singleArrow;whiteSpace=wrap;html=1;rotation=-15;arrowWidth=0.6362938816373471;arrowSize=0.2525101403077794;opacity=40;fillColor=#E6E6E6;" vertex="1" parent="1">
          <mxGeometry x="185" y="430" width="300" height="80" as="geometry" />
        </mxCell>
      </root>
    </mxGraphModel>
  </diagram>
</mxfile>
